<mxfile host="app.diagrams.net" modified="2023-07-18T03:09:26.163Z" agent="Mozilla/5.0 (Windows NT 10.0; Win64; x64) AppleWebKit/537.36 (KHTML, like Gecko) Chrome/114.0.0.0 Safari/537.36 Edg/114.0.1823.82" etag="8PvbzjnQ1GUBCu4eNWqb" version="21.6.2" type="github">
  <diagram name="第 1 页" id="UWIMqtZMEl8ZOnCEmoVI">
    <mxGraphModel dx="1566" dy="470" grid="1" gridSize="10" guides="1" tooltips="1" connect="1" arrows="1" fold="1" page="1" pageScale="1" pageWidth="827" pageHeight="1169" math="0" shadow="0">
      <root>
        <mxCell id="0" />
        <mxCell id="1" parent="0" />
        <mxCell id="99LP93ioxO_lKDVGalR2-1" value="方法1" style="rounded=0;whiteSpace=wrap;html=1;fontSize=14;" vertex="1" parent="1">
          <mxGeometry x="-60" y="425" width="120" height="40" as="geometry" />
        </mxCell>
        <mxCell id="99LP93ioxO_lKDVGalR2-2" value="" style="rounded=0;whiteSpace=wrap;html=1;fontSize=14;" vertex="1" parent="1">
          <mxGeometry x="330" y="140" width="140" height="340" as="geometry" />
        </mxCell>
        <mxCell id="99LP93ioxO_lKDVGalR2-3" value="栈帧1" style="rounded=0;whiteSpace=wrap;html=1;fillColor=#b0e3e6;strokeColor=#0e8088;fontSize=14;" vertex="1" parent="1">
          <mxGeometry x="340" y="420" width="120" height="50" as="geometry" />
        </mxCell>
        <mxCell id="99LP93ioxO_lKDVGalR2-4" value="栈帧2" style="rounded=0;whiteSpace=wrap;html=1;fillColor=#b0e3e6;strokeColor=#0e8088;fontSize=14;" vertex="1" parent="1">
          <mxGeometry x="340" y="350" width="120" height="55" as="geometry" />
        </mxCell>
        <mxCell id="99LP93ioxO_lKDVGalR2-5" value="栈帧3" style="rounded=0;whiteSpace=wrap;html=1;fillColor=#b0e3e6;strokeColor=#0e8088;fontSize=14;" vertex="1" parent="1">
          <mxGeometry x="340" y="290" width="120" height="50" as="geometry" />
        </mxCell>
        <mxCell id="99LP93ioxO_lKDVGalR2-6" value="栈帧4" style="rounded=0;whiteSpace=wrap;html=1;fillColor=#fad9d5;strokeColor=#ae4132;fontSize=14;" vertex="1" parent="1">
          <mxGeometry x="340" y="220" width="120" height="60" as="geometry" />
        </mxCell>
        <mxCell id="99LP93ioxO_lKDVGalR2-7" value="方法2" style="rounded=0;whiteSpace=wrap;html=1;fontSize=14;" vertex="1" parent="1">
          <mxGeometry x="-10" y="357.5" width="120" height="40" as="geometry" />
        </mxCell>
        <mxCell id="99LP93ioxO_lKDVGalR2-8" value="方法3" style="rounded=0;whiteSpace=wrap;html=1;fontSize=14;" vertex="1" parent="1">
          <mxGeometry x="20" y="295" width="120" height="40" as="geometry" />
        </mxCell>
        <mxCell id="99LP93ioxO_lKDVGalR2-9" value="方法4" style="rounded=0;whiteSpace=wrap;html=1;fontSize=14;" vertex="1" parent="1">
          <mxGeometry x="80" y="230" width="120" height="40" as="geometry" />
        </mxCell>
        <mxCell id="99LP93ioxO_lKDVGalR2-10" value="" style="endArrow=classic;html=1;rounded=0;dashed=1;exitX=1;exitY=0.5;exitDx=0;exitDy=0;entryX=0;entryY=0.5;entryDx=0;entryDy=0;fontSize=14;" edge="1" parent="1" source="99LP93ioxO_lKDVGalR2-9" target="99LP93ioxO_lKDVGalR2-6">
          <mxGeometry width="50" height="50" relative="1" as="geometry">
            <mxPoint x="190" y="280" as="sourcePoint" />
            <mxPoint x="240" y="230" as="targetPoint" />
          </mxGeometry>
        </mxCell>
        <mxCell id="99LP93ioxO_lKDVGalR2-11" value="" style="endArrow=classic;html=1;rounded=0;dashed=1;exitX=1;exitY=0.5;exitDx=0;exitDy=0;fontSize=14;" edge="1" parent="1" source="99LP93ioxO_lKDVGalR2-8" target="99LP93ioxO_lKDVGalR2-5">
          <mxGeometry width="50" height="50" relative="1" as="geometry">
            <mxPoint x="150" y="309.5" as="sourcePoint" />
            <mxPoint x="290" y="309.5" as="targetPoint" />
          </mxGeometry>
        </mxCell>
        <mxCell id="99LP93ioxO_lKDVGalR2-12" value="" style="endArrow=classic;html=1;rounded=0;dashed=1;entryX=0;entryY=0.5;entryDx=0;entryDy=0;exitX=1;exitY=0.5;exitDx=0;exitDy=0;fontSize=14;" edge="1" parent="1" source="99LP93ioxO_lKDVGalR2-7" target="99LP93ioxO_lKDVGalR2-4">
          <mxGeometry width="50" height="50" relative="1" as="geometry">
            <mxPoint x="120" y="378" as="sourcePoint" />
            <mxPoint x="310" y="384.5" as="targetPoint" />
          </mxGeometry>
        </mxCell>
        <mxCell id="99LP93ioxO_lKDVGalR2-13" value="" style="endArrow=classic;html=1;rounded=0;dashed=1;exitX=1;exitY=0.5;exitDx=0;exitDy=0;fontSize=14;" edge="1" parent="1" source="99LP93ioxO_lKDVGalR2-1" target="99LP93ioxO_lKDVGalR2-3">
          <mxGeometry width="50" height="50" relative="1" as="geometry">
            <mxPoint x="90" y="425.5" as="sourcePoint" />
            <mxPoint x="320" y="425.5" as="targetPoint" />
          </mxGeometry>
        </mxCell>
        <mxCell id="99LP93ioxO_lKDVGalR2-14" value="" style="rounded=0;whiteSpace=wrap;html=1;fontSize=14;fillColor=#FAE5C1;strokeColor=#b46504;" vertex="1" parent="1">
          <mxGeometry x="610" y="230" width="300" height="180" as="geometry" />
        </mxCell>
        <mxCell id="99LP93ioxO_lKDVGalR2-15" value="局部变量表" style="rounded=0;whiteSpace=wrap;html=1;fontSize=14;fillColor=#d0cee2;strokeColor=#56517e;" vertex="1" parent="1">
          <mxGeometry x="620" y="240" width="120" height="40" as="geometry" />
        </mxCell>
        <mxCell id="99LP93ioxO_lKDVGalR2-16" value="方法返回地址" style="rounded=0;whiteSpace=wrap;html=1;fontSize=14;fillColor=#ffff88;strokeColor=#36393d;" vertex="1" parent="1">
          <mxGeometry x="770" y="240" width="120" height="40" as="geometry" />
        </mxCell>
        <mxCell id="99LP93ioxO_lKDVGalR2-17" value="操作数栈" style="rounded=0;whiteSpace=wrap;html=1;fontSize=14;fillColor=#cce5ff;strokeColor=#36393d;" vertex="1" parent="1">
          <mxGeometry x="620" y="300" width="120" height="40" as="geometry" />
        </mxCell>
        <mxCell id="99LP93ioxO_lKDVGalR2-18" value="动态链接" style="rounded=0;whiteSpace=wrap;html=1;fontSize=14;fillColor=#cdeb8b;strokeColor=#36393d;" vertex="1" parent="1">
          <mxGeometry x="770" y="300" width="120" height="40" as="geometry" />
        </mxCell>
        <mxCell id="99LP93ioxO_lKDVGalR2-19" value="一些附加信息" style="rounded=0;whiteSpace=wrap;html=1;fontSize=14;fillColor=#bac8d3;strokeColor=#23445d;" vertex="1" parent="1">
          <mxGeometry x="620" y="357.5" width="270" height="42.5" as="geometry" />
        </mxCell>
        <mxCell id="99LP93ioxO_lKDVGalR2-20" value="" style="endArrow=classic;html=1;rounded=0;entryX=0;entryY=0;entryDx=0;entryDy=0;dashed=1;" edge="1" parent="1" target="99LP93ioxO_lKDVGalR2-14">
          <mxGeometry width="50" height="50" relative="1" as="geometry">
            <mxPoint x="460" y="290" as="sourcePoint" />
            <mxPoint x="510" y="240" as="targetPoint" />
          </mxGeometry>
        </mxCell>
        <mxCell id="99LP93ioxO_lKDVGalR2-21" value="" style="endArrow=classic;html=1;rounded=0;entryX=0;entryY=1;entryDx=0;entryDy=0;dashed=1;" edge="1" parent="1" source="99LP93ioxO_lKDVGalR2-5" target="99LP93ioxO_lKDVGalR2-14">
          <mxGeometry width="50" height="50" relative="1" as="geometry">
            <mxPoint x="510" y="370" as="sourcePoint" />
            <mxPoint x="560" y="320" as="targetPoint" />
          </mxGeometry>
        </mxCell>
        <mxCell id="99LP93ioxO_lKDVGalR2-23" value="" style="endArrow=classic;html=1;rounded=0;exitX=0.5;exitY=0;exitDx=0;exitDy=0;" edge="1" parent="1" source="99LP93ioxO_lKDVGalR2-1">
          <mxGeometry width="50" height="50" relative="1" as="geometry">
            <mxPoint x="20" y="450" as="sourcePoint" />
            <mxPoint x="50" y="400" as="targetPoint" />
          </mxGeometry>
        </mxCell>
        <mxCell id="99LP93ioxO_lKDVGalR2-24" value="" style="endArrow=classic;html=1;rounded=0;exitX=0.5;exitY=0;exitDx=0;exitDy=0;entryX=0.5;entryY=1;entryDx=0;entryDy=0;" edge="1" parent="1" target="99LP93ioxO_lKDVGalR2-8">
          <mxGeometry width="50" height="50" relative="1" as="geometry">
            <mxPoint x="30" y="357.5" as="sourcePoint" />
            <mxPoint x="80" y="340" as="targetPoint" />
          </mxGeometry>
        </mxCell>
        <mxCell id="99LP93ioxO_lKDVGalR2-25" value="" style="endArrow=classic;html=1;rounded=0;exitX=0.5;exitY=0;exitDx=0;exitDy=0;" edge="1" parent="1">
          <mxGeometry width="50" height="50" relative="1" as="geometry">
            <mxPoint x="80" y="295" as="sourcePoint" />
            <mxPoint x="130" y="270" as="targetPoint" />
          </mxGeometry>
        </mxCell>
      </root>
    </mxGraphModel>
  </diagram>
</mxfile>
